<svg xmlns="http://www.w3.org/2000/svg" viewBox="0 0 1024 1024">
	<circle cx="511.8" cy="511.7" r="393.7" fill="#c7e0f4" />
	<path d="m511.8 244.6c147.5 0 267 119.6 267 267.1 0 70.8-28.1 138.7-78.2 188.8-50.1 50.1-118 78.3-188.8 78.3-70.9 0-138.8-28.2-188.9-78.3-50.1-50.1-78.2-118-78.2-188.8 0-147.5 119.5-267.1 267.1-267.1z" fill="#005a9e" />
	<path d="m371 441.3c0.2-18.5 7.7-36.2 20.9-49.3 13.2-13 30.9-20.3 49.5-20.3 18.5 0 36.3 7.3 49.4 20.3 13.2 13.1 20.7 30.8 21 49.3 0 18.7-7.5 36.6-20.7 49.8-13.2 13.2-31.1 20.6-49.7 20.6-18.7 0-36.6-7.4-49.8-20.6-13.2-13.2-20.7-31.1-20.7-49.8z" fill="#c7e0f4" />
</svg>