<svg xmlns="http://www.w3.org/2000/svg" xmlns:xlink="http://www.w3.org/1999/xlink" viewBox="0 0 512 512">
  <path d="M346.65 304.3a136 136 0 0 0-180.71 0a21 21 0 1 0 27.91 31.38a94 94 0 0 1 124.89 0a21 21 0 0 0 27.91-31.4z" fill="currentColor"></path>
  <path d="M256.28 183.7a221.47 221.47 0 0 0-151.8 59.92a21 21 0 1 0 28.68 30.67a180.28 180.28 0 0 1 246.24 0a21 21 0 1 0 28.68-30.67a221.47 221.47 0 0 0-151.8-59.92z" fill="currentColor"></path>
  <path d="M462 175.86a309 309 0 0 0-411.44 0a21 21 0 1 0 28 31.29a267 267 0 0 1 355.43 0a21 21 0 0 0 28-31.31z" fill="currentColor"></path>
  <circle cx="256.28" cy="393.41" r="32" fill="currentColor"></circle>
</svg>