<svg xmlns="http://www.w3.org/2000/svg" xmlns:xlink="http://www.w3.org/1999/xlink" viewBox="0 0 20 20">
  <g fill="none">
    <path d="M12.475 8.014a1 1 0 0 1 .993.884l.007.116v4.368a3.484 3.484 0 0 1-6.964.19l-.005-.19V9.014a1 1 0 0 1 .883-.993l.117-.007h4.969zm0 1h-4.97v4.368a2.484 2.484 0 0 0 4.964.163l.006-.163V9.014zm-6.701-1a1.988 1.988 0 0 0-.26.82l-.008.18h-2.49v3.74a1.856 1.856 0 0 0 2.618 1.693c.08.329.196.644.344.94a2.856 2.856 0 0 1-3.957-2.466l-.004-.168V9.014a1 1 0 0 1 .883-.993l.117-.007h2.757zm8.433 0h2.784a1 1 0 0 1 .993.884l.007.116v3.74a2.855 2.855 0 0 1-3.984 2.624c.148-.298.264-.613.343-.943a1.856 1.856 0 0 0 2.635-1.536l.006-.145v-3.74h-2.516l-.006-.149a1.989 1.989 0 0 0-.262-.851zM9.988 2.989a2.227 2.227 0 1 1 0 4.455a2.227 2.227 0 0 1 0-4.455zm4.988.628a1.913 1.913 0 1 1 0 3.827a1.913 1.913 0 0 1 0-3.827zm-9.96 0a1.913 1.913 0 1 1 0 3.827a1.913 1.913 0 0 1 0-3.827zm4.972.372a1.227 1.227 0 1 0 0 2.455a1.227 1.227 0 0 0 0-2.455zm4.988.628a.913.913 0 1 0 0 1.827a.913.913 0 0 0 0-1.827zm-9.96 0a.913.913 0 1 0 0 1.827a.913.913 0 0 0 0-1.827z" fill="currentColor"></path>
  </g>
</svg>