<svg xmlns="http://www.w3.org/2000/svg" xmlns:xlink="http://www.w3.org/1999/xlink" viewBox="0 0 24 24">
  <g fill="none">
    <path d="M12 5a8.5 8.5 0 1 1 0 17a8.5 8.5 0 0 1 0-17zm0 3a.75.75 0 0 0-.743.648l-.007.102v4.5l.007.102a.75.75 0 0 0 1.486 0l.007-.102v-4.5l-.007-.102A.75.75 0 0 0 12 8zm7.17-2.877l.082.061l1.149 1a.75.75 0 0 1-.904 1.193l-.081-.061l-1.149-1a.75.75 0 0 1 .903-1.193zM14.25 2.5a.75.75 0 0 1 .102 1.493L14.25 4h-4.5a.75.75 0 0 1-.102-1.493L9.75 2.5h4.5z" fill="currentColor"></path>
  </g>
</svg>