<?xml version="1.0" standalone="no"?><!DOCTYPE svg PUBLIC "-//W3C//DTD SVG 1.1//EN"
        "http://www.w3.org/Graphics/SVG/1.1/DTD/svg11.dtd">
<svg t="1702607741258" class="icon" viewBox="0 0 1024 1024" version="1.1" xmlns="http://www.w3.org/2000/svg" p-id="9400"
     xmlns:xlink="http://www.w3.org/1999/xlink">
    <path d="M768 341.333333h-42.666667V256c0-117.76-95.573333-213.333333-213.333333-213.333333S298.666667 138.24 298.666667 256v85.333333H256c-46.933333 0-85.333333 38.4-85.333333 85.333334v426.666666c0 46.933333 38.4 85.333333 85.333333 85.333334h512c46.933333 0 85.333333-38.4 85.333333-85.333334V426.666667c0-46.933333-38.4-85.333333-85.333333-85.333334z m-256 384c-46.933333 0-85.333333-38.4-85.333333-85.333333s38.4-85.333333 85.333333-85.333333 85.333333 38.4 85.333333 85.333333-38.4 85.333333-85.333333 85.333333zM384 341.333333V256c0-70.826667 57.173333-128 128-128s128 57.173333 128 128v85.333333H384z"
          fill="#d81e06" p-id="9401"></path>
</svg>
