<?xml version="1.0" standalone="no"?><!DOCTYPE svg PUBLIC "-//W3C//DTD SVG 1.1//EN"
        "http://www.w3.org/Graphics/SVG/1.1/DTD/svg11.dtd">
<svg t="1702607950355" class="icon" viewBox="0 0 1024 1024" version="1.1" xmlns="http://www.w3.org/2000/svg"
     p-id="18620" xmlns:xlink="http://www.w3.org/1999/xlink"  >
    <path d="M768 362.666667h-42.666667v-85.333334c0-117.76-95.573333-213.333333-213.333333-213.333333-117.76 0-213.333333 95.573333-213.333333 213.333333v85.333334H256c-46.933333 0-85.333333 38.4-85.333333 85.333333v426.666667c0 46.990222 38.4 85.333333 85.333333 85.333333h512c46.933333 0 85.333333-38.343111 85.333333-85.333333v-426.666667c0-46.933333-38.4-85.333333-85.333333-85.333333zM512 746.666667c-46.933333 0-85.333333-38.4-85.333333-85.333334s38.4-85.333333 85.333333-85.333333 85.333333 38.4 85.333333 85.333333-38.4 85.333333-85.333333 85.333334z m128-467.626667v-1.706667h85.333333v85.333334h-341.333333v-83.626667c0-71.509333 57.457778-129.649778 128-129.649778s128 58.140444 128 129.706667v-0.056889z"
          fill="#1296db" p-id="18621"></path>
</svg>
